<svg version="1.1" id="Layer_1" xmlns="http://www.w3.org/2000/svg" xmlns:xlink="http://www.w3.org/1999/xlink" x="0px" y="0px"
	 viewBox="0 0 3227.9 1848.2" style="enable-background:new 0 0 3227.9 1848.2;" xml:space="preserve">
<style type="text/css">
	.st0{fill:#FFFFFF;}
</style>
<g>
	<g>
		<polygon points="2227.9,1163.2 2612.5,1163.2 2612.5,1253.1 2585.3,1276.4 1928.3,1276.4 1901.9,1254.7 1901.4,651.8 
			1588.9,1287.7 1589.2,1586.9 2700,1586.9 2925.1,1396.6 2925.1,852.8 2227.9,852.8 		"/>
		<polygon points="2696.2,261.4 1565.5,261.4 1102.3,1216.7 637,261.4 302.8,261.4 302.8,1586.9 613.4,1586.9 613.4,922 
			937.3,1586.9 1267.4,1586.9 1762.6,573.3 2576.2,571.8 2612.5,605.2 2612.5,745 2925.1,745 2925.1,467.1 		"/>
	</g>
</g>
</svg>
