<svg version="1.1" id="Layer_1" xmlns="http://www.w3.org/2000/svg" xmlns:xlink="http://www.w3.org/1999/xlink" x="0px" y="0px" viewBox="0 0 4730 1043.3" style="enable-background:new 0 0 4730 1043.3;" xml:space="preserve"><style type="text/css">.st0{fill:#FFFFFF;}</style><g><g><polygon points="482.5,619.4 326.4,298.8 213.3,298.8 213.3,745.3 318.6,745.3 318.6,523.2 426.8,745.3 538.3,745.3 645.8,523.4 645.8,745.3 751.8,745.3 751.8,298.8 638,298.8 "/><path d="M900.5,298.8l-77.2,69.4v312.9l75.9,64.2h298.2l75.9-64.2V368.2l-77.2-69.4H900.5z M1168.1,415.1v217.2l-9.5,7.7H938.1 l-8.9-7.6V415l11.9-11h214.4L1168.1,415.1z"/><path d="M1718.2,625.3l75.9-64.2V368.2l-76.5-69.4h-372.9v446.5H1450v-120h117.8l105.6,120h140.6l-106.3-120H1718.2z M1450,404 H1677l11.9,11v97.4l-8.9,7.6h-230V404z"/><polygon points="1967.3,574.3 2156.9,574.3 2156.9,469 1967.3,469 1967.3,404 2267.6,404 2267.6,298.8 1862,298.8 1862,745.3 2269.7,745.3 2269.7,640 1967.3,640 "/><polygon points="2397.6,298.8 2320.4,368.2 2320.4,681.1 2396.3,745.3 2694.5,745.3 2770.4,681.1 2770.4,496.7 2535.2,496.7 2535.2,601.9 2664.5,601.9 2664.5,632.4 2655.6,640 2435,640 2425.6,632.3 2425.6,415.1 2438.1,404 2652.5,404 2664.5,415 2664.5,462.2 2770.4,462.2 2770.4,368.2 2693.2,298.8 "/><polygon points="3010,455.4 2893.4,298.1 2762.5,298.1 2957.6,561.2 2957.6,745.3 3062.8,745.3 3062.8,559.9 3264.1,298.1 3131.4,298.1 "/><polygon points="3556.5,619.4 3400.3,298.8 3287.3,298.8 3287.3,745.3 3392.6,745.3 3392.6,523.2 3500.8,745.3 3612.3,745.3 3719.8,523.4 3719.8,745.3 3825.8,745.3 3825.8,298.8 3712,298.8 "/><polygon points="4009.4,404 4341.5,404 4341.5,298.8 3968.7,298.8 3892.2,368.2 3892.2,502.4 3964.8,575.7 4223.8,575 4236.3,586.1 4236.3,632.3 4226.9,640 3892.2,640 3892.2,745.3 4265.6,745.3 4341.5,681.1 4341.5,540 4264.4,469 4008.3,470.5 3997.4,459.2 3997.4,415 "/></g><g><path d="M4495.9,719.6h17.4l3.4,3.9v16.7l-3.4,4.1h-17.4l-3.7-4.1v-16.5L4495.9,719.6z"/><path d="M4405.3,608.9l16.7-18.5h20.8v22.5h-10.9l-4.3,4.7v57.8l4.3,4.9h58.9l3.4-4.1v-59.3l-3.4-3.9h-11.4v-22.5h21.7l15.3,18.1 v75.8l-15.3,18.1H4422l-16.7-18.5V608.9z"/><path d="M4405.3,476.4l16.7-18.5h79.1l15.3,18.1v75.8l-15.3,18.1H4422l-16.7-18.5V476.4z M4431.9,480.1l-4.3,4.9v57.8l4.3,4.7 h58.9l3.4-3.9v-59.3l-3.4-4.1H4431.9z"/><path d="M4405.3,324.4V299h111.1v22.4h-66.4l66.4,32.2v25.8l-66.4,32.4h66.4v22.3h-111.1v-25.3l86.8-42.3L4405.3,324.4z"/></g></g></svg>
